<?xml version="1.0" encoding="UTF-8"?>
<svg width="848px" height="256px" viewBox="0 0 848 256" version="1.1" xmlns="http://www.w3.org/2000/svg" xmlns:xlink="http://www.w3.org/1999/xlink">
    <!-- Generator: Sketch 46.2 (44496) - http://www.bohemiancoding.com/sketch -->
    <title>Ansible_logo@2x</title>
    <desc>Created with Sketch.</desc>
    <defs></defs>
    <g id="Page-1" stroke="none" stroke-width="1" fill="none" fill-rule="evenodd">
        <g id="Ansible_logo" fill-rule="nonzero">
            <g id="Group" transform="translate(270.000000, 93.000000)" fill="#1A1918">
                <path d="M151.444115,70 C150.226534,70 148.912001,69.6909788 147.999251,68.4513315 L108.913498,16.828747 L108.913498,69.4843709 L100,69.4843709 L100,4.64511532 C100,2.06518835 102.126837,0 104.559379,0 C105.975232,0 107.191939,0.412325217 108.100321,1.65197257 L147.087376,53.1721435 L147.087376,0.722237061 L156,0.722237061 L156,65.4572981 C156,68.1423101 153.873164,70 151.444115,70" id="Shape"></path>
                <path d="M226.308145,71 C217.275384,71 207.829102,69.1387338 199,65.8333814 L201.157025,58.3909906 C209.267119,60.9751911 218.095336,62.8355661 226.308145,62.8355661 C237.704251,62.8355661 243.658205,58.8046052 243.658205,53.1218596 C243.658205,47.9534583 239.036895,45.370149 223.124852,37.9286495 C207.21281,30.4880413 200.952479,25.7350375 200.952479,16.4322716 C200.952479,4.75656946 209.985242,0 227.025384,0 C234.110093,0 244.990851,1.44854298 251.255607,3.30891789 L249.817591,10.955442 C242.937427,9.3027659 234.31641,8.16621679 227.2317,8.16621679 C215.222845,8.16621679 210.294274,10.4384236 210.294274,16.1238434 C210.294274,21.7031852 213.885773,24.0805785 230.722254,31.8322891 C248.483176,39.996723 253,44.1310878 253,52.6039498 C253,64.9036396 241.294865,71 226.308145,71" id="Shape"></path>
                <polygon id="Shape" points="295 1 304 1 304 70 295 70"></polygon>
                <path d="M383.058602,38.7117546 L360.201345,38.7117546 L360.201345,62.1278945 L383.058602,62.1278945 C390.844288,62.1278945 395.597168,57.153875 395.597168,50.2111588 C395.597168,43.6839869 390.642798,38.7117546 383.058602,38.7117546 M378.606649,8.872999 L360.201345,8.872999 L360.201345,30.9415247 L378.606649,30.9415247 C385.990228,30.9415247 391.34932,26.1748303 391.34932,19.5448894 C391.34932,13.0177174 386.69675,8.872999 378.606649,8.872999 M383.158911,70 L355.653444,70 C353.022743,70 351,67.926747 351,65.3378619 L351,5.66213799 C351,3.17423456 353.022743,1 355.653444,1 L378.406031,1 C392.361128,1 400.652717,7.94092885 400.652717,18.8201445 C400.652717,24.724447 397.214314,30.2158862 391.95466,33.4276407 C399.744706,35.8109879 405,42.3372661 405,50.2111588 C405,61.1931435 396.001891,70 383.158911,70" id="Shape"></path>
                <path d="M450.566889,70 C448.032065,70 446,67.8239781 446,65.3378619 L446,1 L455.238888,1 L455.238888,61.6086878 L492,61.6086878 L492,70 L450.566889,70 Z" id="Shape"></path>
                <path d="M555.197561,71 C536.349215,71 525,63.9730067 525,49.8147245 C525,43.0970507 528.75044,36.6895882 536.046801,33.6926641 C530.168984,29.9719144 527.129999,24.7010007 527.129999,18.91396 C527.129999,6.09992593 536.961905,0 555.402084,0 C561.584063,0 570.297218,0.724717206 577.594452,2.37917614 L576.579708,10.0257003 C568.880423,8.78485606 561.682826,8.06370452 554.691502,8.06370452 C542.733967,8.06370452 536.349215,11.3690567 536.349215,19.3275747 C536.349215,25.6325252 542.227905,30.5923364 550.032074,30.5923364 L565.837941,30.5923364 C568.067581,30.5923364 569.789408,32.3493075 569.789408,34.5190022 C569.789408,36.7921003 568.067581,38.5490717 565.837941,38.5490717 L548.817181,38.5490717 C539.896882,38.5490717 534.225333,42.9918643 534.225333,49.8147245 C534.225333,59.838642 543.446297,62.8355661 554.997409,62.8355661 C561.280775,62.8355661 569.789408,62.0110108 576.679349,60.3565518 L578,67.8996723 C571.4116,69.7609387 562.797209,71 555.197561,71" id="Shape"></path>
                <path d="M31.5617802,13.627633 L47.89013,54.2309453 L23.2292581,34.6580848 L31.5617802,13.627633 Z M60.5696322,63.5855297 L35.4554159,2.68456802 C34.7387254,0.929581766 33.3035769,0 31.5617802,0 C29.8199835,0 28.2832079,0.929581766 27.5665175,2.68456802 L0,69.4844559 L9.42832514,69.4844559 L20.3421704,41.9442607 L52.9051964,68.4515873 C54.214858,69.5174009 55.1595462,70 56.3905572,70 C58.8481608,70 61,68.1426173 61,65.4589395 C61,65.023532 60.8453503,64.3307977 60.5696322,63.5855297 L60.5696322,63.5855297 Z" id="Shape"></path>
            </g>
            <g id="Group">
                <path d="M255.878566,127.868028 C255.878566,198.323171 198.768494,255.43274 128.312347,255.43274 C57.8622265,255.43274 0.746127325,198.323171 0.746127325,127.868028 C0.746127325,57.4179077 57.8622265,0.301808544 128.312347,0.301808544 C198.768494,0.301808544 255.878566,57.4179077 255.878566,127.868028" id="Shape" fill="#1A1918"></path>
                <path d="M130.459863,78.228885 L163.47146,159.705138 L113.608007,120.427335 L130.459863,78.228885 Z M189.104342,178.474123 L138.32577,56.2720498 C136.876246,52.7476854 133.977698,50.8827909 130.459863,50.8827909 C126.935499,50.8827909 123.826002,52.7476854 122.376477,56.2720498 L66.6436045,190.312411 L85.708924,190.312411 L107.771234,135.047143 L173.610097,188.23707 C176.258016,190.378208 178.168617,191.346566 180.652297,191.346566 C185.626186,191.346566 189.973756,187.617782 189.973756,182.235555 C189.973756,181.359612 189.664363,179.969354 189.104342,178.474123 L189.104342,178.474123 Z" id="Shape" fill="#FFFFFF"></path>
            </g>
        </g>
    </g>
</svg>