<svg xmlns="http://www.w3.org/2000/svg" viewBox="0 0 141.65 141.09"><defs><style>.cls-1{fill:#9b0000;}.cls-2{fill:none;stroke:#9b0000;stroke-miterlimit:10;stroke-width:0.25px;}</style></defs><title>资源 9</title><g id="图层_2" data-name="图层 2"><g id="图层_1-2" data-name="图层 1"><path class="cls-1" d="M102.82,41.61H43.21a4.74,4.74,0,0,0,0,9.47h59.61a4.74,4.74,0,1,0,0-9.47Z"/><path class="cls-1" d="M95.34,18.84H49.45a4.74,4.74,0,0,0,0,9.47H95.34a4.74,4.74,0,1,0,0-9.47Z"/><path class="cls-1" d="M78.57,54.29a36.23,36.23,0,0,1-2.71-15.52,73.48,73.48,0,0,1,1.33-11.7H68.53a98.67,98.67,0,0,0-1.21,11.7c-.59,6.9,2.38,15.82,2.38,15.82,4.92,8.39,5.8,17.77,5.8,27.65,0,20.34-8.4,37.14-26.09,50.41l-.15.1-.11.07h0a3.17,3.17,0,0,0-1.09,2.61,3.63,3.63,0,0,0,3.85,3.48A5,5,0,0,0,55,137.54h0c19.63-14.12,28.73-33,28.73-55.32C83.73,72.33,83.1,62.88,78.57,54.29Z"/><circle class="cls-2" cx="71.27" cy="70.59" r="59.87"/><path class="cls-2" d="M98.56,34s-1.93-4.22,1.92-5.48C102.84,27.74,105,30,105,32c-.06,2.26-1.29,4-4.67,4.16-5.65.23-10.25-10-21-11-8.39-.79-13.13,3.31-18.15,4.8-4.55,1.35-6.86.47-6.86.47s4.85-2.62,6.11-4.1,1.61-3.74.5-4.36a1.24,1.24,0,0,0-2,1c0,1,1.32,2.48.12,2.62a6.75,6.75,0,0,1-3.49-1.12s2.27,2.18.22,3.15c-1.16.55-4.93.94-8.82,1.41-3.7.45-5.56.65-6.17,2.71a7.14,7.14,0,0,0,.31,3.69s2.2-4.59,4.67-3.18c1.16.66.77,2.92-.55,3.06-1,.1-2.45-.93-2.68-.07s-.13,1.87-.89,2.05c-.48.12-1.54-1.24-2.42-.25s-.63,2.78-2.24,3c-2.29.3-3.54-1.78-6.23-.1-1.64,1-2.1,4.08.07,5.93,1.29,1.1,3.58.54,4.83-.43,1.59-1.22,3.82-5.4,3.82-5.4a9.73,9.73,0,0,0,6-1.49c2.62-1.87,3-4.3,5.23-4.05s3.53,2.47,1.69,4.67c-4.08,4.88-11.38,4-11.22,6s2.93,4.37,5.92,4.09a86.42,86.42,0,0,0,9.42-1.85s-7.69.12-8.56-1.56a1.07,1.07,0,0,1,0-1.19c.36-.51,1.36,0,1.36,0s2.22,1.32,2.85,1.19-2.66-2.34-1.79-2.34,4.36.62,4.86.62-2.61-1.71-.51-2.8a4.56,4.56,0,0,0,2.38-2.56,4.94,4.94,0,0,0,4.74.62c2.49-1.12,2.87-5.53,7.23-4s4.44,6.2,1.57,9.64S64,49.83,56.8,50.46s-13.16,1.36-15.21,8.1c-1.77,5.82,1.25,12.09,6.86,15.21s12.94.87,16.21-1.37,8-7,14.36-9.21,10.2-2,10.2-2a18.55,18.55,0,0,0-9.8-2.09c-4.83.28-9.47,2.85-14.1,7.28C61.5,70,56.42,71.53,53.06,71a6.81,6.81,0,0,1-6-6.92c.36-4.76,4-4.61,4-4.61s-3.74,3.35,0,7.66a4.72,4.72,0,0,0,7.48-.23c1.18-1.6-.07-3.32-1.13-4.07-1.85-1.3-2.31-3.45-1-4.87,2.25-2.36,8.29.85,14.73-2.48,5.63-2.91,8.29-7.47,8.45-12.73C79.84,36,72.8,32,72.8,32s5.74-1.55,12.67,3.91,11.62,7,15.71,6.48c5.44-.66,8.82-4.73,8.6-9.47s-2.5-7.58-5.93-8.4c-3.94-1-6.9,1-7.56,3.26A5.82,5.82,0,0,0,98.56,34Z"/><path class="cls-2" d="M44.38,51.14s-7,1.79-6.9,10.29A17,17,0,0,0,51.93,77.56c8.35,1.12,17.64-4.24,22.82-9,4.32-4,12.6-6.2,18.45-4.82s15.38,5.06,20.9,2.92c4.44-1.72,7.11-5.45,6.69-10.13-.4-4.44-5.34-8.72-10.06-8-3.51.53-5.71,2.8-5.55,6,.19,3.85,4.3,5.63,6,4.71a2.17,2.17,0,0,0-.26-4,2.06,2.06,0,0,1-1.13-3.33c1.07-1.43,5.7-1.1,7.42,3.13,1.83,4.49-1.79,8.54-7,8.94-3.64.28-8.47-2.38-9.26-7.1-.9-5.41,3.69-10,9.07-10.64a12.21,12.21,0,0,1,12.38,6.63c2.73,5.09,1.19,12-3.49,15.11C113.17,71.73,105.54,71,105.54,71s8.89,8,8.89,20c0,11.12-7,20.39-16,24.6-10,4.7-17.95,1.79-25.05-3.94S58,100,53.79,97.15s-12.31-.66-13.51,4.37c-1.15,4.88,2.77,8.71,6.36,7.81,2.12-.53,3.58-4.5.79-5.83-1.92-.91-4.1.55-4.1.55s1.39-5.8,6.21-4.39c3.18.93,5.3,4,3.66,9.18-1.52,4.82-4.6,5.92-8.69,5.65-4.51-.29-10.59-5.3-9.67-12.84.82-6.7,7.54-12,14-12.18,10.59-.26,21.58,11.72,21.58,11.72s-2-7.47,4.44-10.46c5.43-2.52,10.83.77,11.45,5.36.53,3.91-2.05,6.69-5.13,7.72,0,0,1.34-5.66-1.23-7.25-3.31-2.05-7.68,1-6.36,6.55,1.15,4.81,8,9.07,12.94,9.3s11.92-2.34,16.25-8.18,6.4-16.36.2-23.63c-5.36-6.29-11-7.46-11-7.46s5.5,4.27,4.08,10.24c-1,4.17-4.31,5.79-8.43,5.81A11.09,11.09,0,0,1,81.36,87s5.8,1.9,7.36-3.62c.64-2.27-1.84-6.43-6.33-5.68S77.79,84,71.93,84.81c-5.36.76-9.27-4.68-9.27-4.68s-4.44,4.51-12.45,2.4C44.35,81,35,70.24,35,70.24s4.66,10.32,4,16.19c-.53,5-3.92,9.55-10.6,9.33a9.42,9.42,0,0,1-9-6.41c-1.31-3.43-.7-9.87,4.74-11.22,3.1-.77,7.17,1.23,6.36,4.49-.87,3.48-3.69,1.74-5.77,2.68-1.51.69-1,4.11.53,5.3a5.27,5.27,0,0,0,7.81-2.12c1.56-3.49-.79-10.73-2.32-14.59-2.31-5.86-3-12.38,0-17.58C35.25,48.49,44.38,51.14,44.38,51.14Z"/><path class="cls-1" d="M70.82,0A70.9,70.9,0,0,0,0,70.82c0,35,21.6,59.43,51.07,68v-7.67a63.49,63.49,0,1,1,83.25-60.33c0,32-24.27,54.65-47.07,61.34l-8.74,8.93c36.78-3.84,63.14-34.17,63.14-70.27A70.9,70.9,0,0,0,70.82,0Z"/></g></g></svg>