<?xml version="1.0" encoding="UTF-8"?>
<svg width="1167px" height="297px" viewBox="0 0 1167 297" version="1.1" xmlns="http://www.w3.org/2000/svg" xmlns:xlink="http://www.w3.org/1999/xlink">
    <!-- Generator: Sketch 46.2 (44496) - http://www.bohemiancoding.com/sketch -->
    <title>horizontal</title>
    <desc>Created with Sketch.</desc>
    <defs>
        <polygon id="path-1" points="213.202 300 0.24 300 0.24 3.064 213.202 3.064 426.164 3.064 426.164 300"></polygon>
    </defs>
    <g id="Page-1" stroke="none" stroke-width="1" fill="none" fill-rule="evenodd">
        <g id="horizontal" transform="translate(0.000000, -3.000000)">
            <polygon id="Fill-1" fill="#099CEC" points="33.4 147.064 77.4 147.064 77.4 107.064 33.4 107.064"></polygon>
            <polygon id="Fill-2" fill="#099CEC" points="85.4 147.064 129.4 147.064 129.4 107.064 85.4 107.064"></polygon>
            <polygon id="Fill-3" fill="#099CEC" points="137.4 147.064 181.4 147.064 181.4 107.064 137.4 107.064"></polygon>
            <polygon id="Fill-4" fill="#099CEC" points="189.4 147.064 233.4 147.064 233.4 107.064 189.4 107.064"></polygon>
            <polygon id="Fill-5" fill="#099CEC" points="241.4 147.064 285.4 147.064 285.4 107.064 241.4 107.064"></polygon>
            <polygon id="Fill-6" fill="#099CEC" points="85.4 99.064 129.4 99.064 129.4 59.064 85.4 59.064"></polygon>
            <polygon id="Fill-7" fill="#099CEC" points="137.4 99.064 181.4 99.064 181.4 59.064 137.4 59.064"></polygon>
            <polygon id="Fill-8" fill="#099CEC" points="189.4 99.064 233.4 99.064 233.4 59.064 189.4 59.064"></polygon>
            <polygon id="Fill-9" fill="#099CEC" points="189.4 51.064 233.4 51.064 233.4 11.064 189.4 11.064"></polygon>
            <g id="Group-13" transform="translate(4.000000, 64.000000)">
                <path d="M412.452,55.412 C403.424,49.332 379.696,46.74 362.444,51.384 C361.52,34.2 352.656,19.72 336.444,7.092 L330.444,3.064 L326.444,9.104 C318.588,21.032 315.272,36.932 316.444,51.384 C317.372,60.288 320.468,70.296 326.444,77.56 C321.868,81.116 307.632,87.992 288.444,87.628 L2.444,87.628 C-2.64,117.828 6.072,232.596 138.444,232.596 C236.724,232.596 317.472,188.4 354.444,95.68 C366.612,95.88 398.732,97.86 414.444,67.492 C414.828,66.98 418.444,59.436 418.444,59.436 L412.452,55.412" id="Fill-10" fill="#099CEC"></path>
                <path d="M108.112,178.068 C75.48,189.388 40.344,191.024 33,190.696 C57.48,211.108 101.096,249.632 173,227.636 C159.868,224.072 128.896,212.132 108.112,178.068" id="Fill-12" fill="#FFFFFF"></path>
            </g>
            <path d="M108.468,235.02 C92.768,243.98 74.572,249.012 55.268,249.012 C45.488,249.012 36.016,247.712 27,245.276 C32.712,254.872 32.712,254.872 32.712,254.872 C40.008,256.308 47.548,257.068 55.268,257.068 C76.072,257.068 95.468,251.628 112.372,242.068 C110.968,239.752 109.668,237.44 108.468,235.02" id="Fill-14" fill="#026FB6"></path>
            <path d="M138.908,229.796 C146.584,229.796 152.812,223.532 152.812,215.796 C152.812,208.068 146.584,201.796 138.908,201.796 C131.228,201.796 125,208.068 125,215.796 C125,223.532 131.228,229.796 138.908,229.796" id="Fill-15" fill="#FFFFFF"></path>
            <path d="M141,211.868 C141,210.584 141.632,209.488 142.564,208.756 C141.472,208.188 140.256,207.84 138.944,207.84 C134.56,207.84 131,211.424 131,215.84 C131,220.26 134.56,223.84 138.944,223.84 C143.336,223.84 146.896,220.26 146.896,215.84 L146.848,215.38 C146.288,215.68 145.68,215.892 145,215.892 C142.788,215.892 141,214.092 141,211.868" id="Fill-16" fill="#4D5C64"></path>
            <path d="M415.292,118.696 C409.116,115.184 397.848,113.008 386.212,113.008 C379.436,113.008 372.54,113.744 366.444,115.384 C366.424,115.024 366.404,114.66 366.376,114.3 C371.864,112.848 378.168,112.2 384.456,112.2 C396.972,112.2 409.432,114.768 415.292,118.696" id="Fill-17" fill="#F6F6F6"></path>
            <path d="M162.34,295.388 C167.092,294.416 171.976,293.176 177,291.636 C170.848,289.968 160.784,286.46 149.688,279.704 C241.12,277.476 308.064,230.552 361.58,119.788 L365.252,114.612 C365.62,114.504 365.996,114.4 366.376,114.3 C366.404,114.66 366.424,115.024 366.444,115.384 C372.54,113.744 379.436,113.008 386.212,113.008 C397.848,113.008 409.116,115.184 415.292,118.696 C415.292,118.696 415.296,118.7 415.3,118.7 L421.344,122.796 L418.3,129.236 C404.428,157.352 374.308,159.468 360.208,159.468 C359.06,159.468 358.02,159.452 357.1,159.44 C322.532,245.044 250.716,289.196 162.34,295.388" id="Fill-18" fill="#F6F6F6"></path>
            <path d="M162.34,295.388 C167.092,294.416 171.976,293.176 177,291.636 C170.848,289.968 160.784,286.46 149.688,279.704 C241.12,277.476 308.064,230.552 361.58,119.788 L365.252,114.612 C365.62,114.504 365.996,114.4 366.376,114.3 C366.404,114.66 366.424,115.024 366.444,115.384 C372.54,113.744 379.436,113.008 386.212,113.008 C397.848,113.008 409.116,115.184 415.292,118.696 C415.292,118.696 415.296,118.7 415.3,118.7 L421.344,122.796 L418.3,129.236 C404.428,157.352 374.308,159.468 360.208,159.468 C359.06,159.468 358.02,159.452 357.1,159.44 C322.532,245.044 250.716,289.196 162.34,295.388" id="Fill-19" fill="#0996E3"></path>
            <path d="M93.268,290.652 C66.02,283.628 46.656,270.492 32.956,254.92 C34.336,255.188 35.728,255.432 37.124,255.652 C49.372,269.564 66.04,281.464 88.548,288.792 C90.092,289.436 91.668,290.06 93.268,290.652" id="Fill-20" fill="#F6F6F6"></path>
            <path d="M88.548,288.792 C66.04,281.464 49.372,269.564 37.124,255.652 C37.54,255.72 37.956,255.78 38.372,255.844 C50.38,265.88 66.78,279.7 88.548,288.792" id="Fill-21" fill="#F6F6F6"></path>
            <g id="Group-25" transform="translate(0.000000, 152.000000)">
                <path d="M88.548,136.792 C66.04,129.464 49.372,117.564 37.124,103.652 C37.54,103.72 37.956,103.78 38.372,103.844 C50.38,113.88 66.78,127.7 88.548,136.792" id="Fill-22" fill="#0996E3"></path>
                <path d="M32.272,102.132 C2.252,67.348 0.028,20.832 1.248,2.88 L5.992,2.88 C3.876,21.432 6.5,61.208 29.46,93.912 C28.636,93.708 27.816,93.496 27,93.276 C30.28,98.792 31.676,101.136 32.272,102.132" id="Fill-24" fill="#F6F6F6"></path>
            </g>
            <path d="M53.032,248.988 C44.924,248.824 37.04,247.764 29.46,245.912 C6.5,213.208 3.876,173.432 5.992,154.88 L17.252,154.88 C21.036,193.508 30.016,226.6 53.032,248.988" id="Fill-26" fill="#F6F6F6"></path>
            <path d="M53.032,248.988 C44.924,248.824 37.04,247.764 29.46,245.912 C6.5,213.208 3.876,173.432 5.992,154.88 L17.252,154.88 C21.036,193.508 30.016,226.6 53.032,248.988" id="Fill-27" fill="#0996E3"></path>
            <path d="M140.3,296.148 C122.472,296.148 106.884,294.164 93.268,290.652 C91.668,290.06 90.092,289.436 88.548,288.792 C66.78,279.7 50.38,265.88 38.372,255.844 C43.888,256.648 49.528,257.068 55.268,257.068 C57.64,257.068 59.988,256.996 62.32,256.856 C81.928,271.3 109.732,279.604 149.252,279.716 C149.396,279.712 149.544,279.708 149.688,279.704 C160.784,286.46 170.848,289.968 177,291.636 C171.976,293.176 167.092,294.416 162.34,295.388 C155.104,295.896 147.748,296.148 140.3,296.148" id="Fill-28" fill="#F6F6F6"></path>
            <path d="M140.3,296.148 C122.472,296.148 106.884,294.164 93.268,290.652 C91.668,290.06 90.092,289.436 88.548,288.792 C66.78,279.7 50.38,265.88 38.372,255.844 C43.888,256.648 49.528,257.068 55.268,257.068 C57.64,257.068 59.988,256.996 62.32,256.856 C81.928,271.3 109.732,279.604 149.252,279.716 C149.396,279.712 149.544,279.708 149.688,279.704 C160.784,286.46 170.848,289.968 177,291.636 C171.976,293.176 167.092,294.416 162.34,295.388 C155.104,295.896 147.748,296.148 140.3,296.148" id="Fill-29" fill="#F5F5F5"></path>
            <path d="M55.268,257.068 C49.528,257.068 43.888,256.648 38.372,255.844 C37.956,255.78 37.54,255.72 37.124,255.652 C35.728,255.432 34.336,255.188 32.956,254.92 C32.724,254.656 32.5,254.396 32.272,254.132 C31.676,253.136 30.28,250.792 27,245.276 C27.816,245.496 28.636,245.708 29.46,245.912 C37.04,247.764 44.924,248.824 53.032,248.988 C55.908,251.784 58.992,254.408 62.32,256.856 C59.988,256.996 57.64,257.068 55.268,257.068" id="Fill-30" fill="#F6F6F6"></path>
            <path d="M55.268,257.068 C49.528,257.068 43.888,256.648 38.372,255.844 C37.956,255.78 37.54,255.72 37.124,255.652 C35.728,255.432 34.336,255.188 32.956,254.92 C32.724,254.656 32.5,254.396 32.272,254.132 C31.676,253.136 30.28,250.792 27,245.276 C27.816,245.496 28.636,245.708 29.46,245.912 C37.04,247.764 44.924,248.824 53.032,248.988 C55.908,251.784 58.992,254.408 62.32,256.856 C59.988,256.996 57.64,257.068 55.268,257.068" id="Fill-31" fill="#026BAF"></path>
            <polygon id="Fill-32" fill="#066DA5" points="41.4 139.064 45.4 139.064 45.4 115.064 41.4 115.064"></polygon>
            <polygon id="Fill-33" fill="#066DA5" points="53.4 139.064 57.4 139.064 57.4 115.064 53.4 115.064"></polygon>
            <polygon id="Fill-34" fill="#066DA5" points="65.4 139.064 69.4 139.064 69.4 115.064 65.4 115.064"></polygon>
            <polygon id="Fill-35" fill="#066DA5" points="93.4 139.064 97.4 139.064 97.4 115.064 93.4 115.064"></polygon>
            <polygon id="Fill-36" fill="#066DA5" points="105.4 139.064 109.4 139.064 109.4 115.064 105.4 115.064"></polygon>
            <polygon id="Fill-37" fill="#066DA5" points="117.4 139.064 121.4 139.064 121.4 115.064 117.4 115.064"></polygon>
            <polygon id="Fill-38" fill="#066DA5" points="145.4 139.064 149.4 139.064 149.4 115.064 145.4 115.064"></polygon>
            <polygon id="Fill-39" fill="#066DA5" points="157.4 139.064 161.4 139.064 161.4 115.064 157.4 115.064"></polygon>
            <polygon id="Fill-40" fill="#066DA5" points="169.4 139.064 173.4 139.064 173.4 115.064 169.4 115.064"></polygon>
            <polygon id="Fill-41" fill="#066DA5" points="197.4 139.064 201.4 139.064 201.4 115.064 197.4 115.064"></polygon>
            <polygon id="Fill-42" fill="#066DA5" points="209.4 139.064 213.4 139.064 213.4 115.064 209.4 115.064"></polygon>
            <polygon id="Fill-43" fill="#066DA5" points="221.4 139.064 225.4 139.064 225.4 115.064 221.4 115.064"></polygon>
            <polygon id="Fill-44" fill="#066DA5" points="249.4 139.064 253.4 139.064 253.4 115.064 249.4 115.064"></polygon>
            <polygon id="Fill-45" fill="#066DA5" points="261.4 139.064 265.4 139.064 265.4 115.064 261.4 115.064"></polygon>
            <polygon id="Fill-46" fill="#066DA5" points="273.4 139.064 277.4 139.064 277.4 115.064 273.4 115.064"></polygon>
            <polygon id="Fill-47" fill="#066DA5" points="105.4 91.064 109.4 91.064 109.4 67.064 105.4 67.064"></polygon>
            <polygon id="Fill-48" fill="#066DA5" points="117.4 91.064 121.4 91.064 121.4 67.064 117.4 67.064"></polygon>
            <polygon id="Fill-49" fill="#066DA5" points="145.4 91.064 149.4 91.064 149.4 67.064 145.4 67.064"></polygon>
            <polygon id="Fill-50" fill="#066DA5" points="157.4 91.064 161.4 91.064 161.4 67.064 157.4 67.064"></polygon>
            <polygon id="Fill-51" fill="#066DA5" points="169.4 91.064 173.4 91.064 173.4 67.064 169.4 67.064"></polygon>
            <polygon id="Fill-52" fill="#066DA5" points="197.4 91.064 201.4 91.064 201.4 67.064 197.4 67.064"></polygon>
            <polygon id="Fill-53" fill="#066DA5" points="209.4 91.064 213.4 91.064 213.4 67.064 209.4 67.064"></polygon>
            <polygon id="Fill-54" fill="#066DA5" points="221.4 91.064 225.4 91.064 225.4 67.064 221.4 67.064"></polygon>
            <polygon id="Fill-55" fill="#066DA5" points="209.4 43.064 213.4 43.064 213.4 19.064 209.4 19.064"></polygon>
            <polygon id="Fill-56" fill="#066DA5" points="197.4 43.064 201.4 43.064 201.4 19.064 197.4 19.064"></polygon>
            <polygon id="Fill-57" fill="#066DA5" points="221.4 43.064 225.4 43.064 225.4 19.064 221.4 19.064"></polygon>
            <g id="Group-61">
                <mask id="mask-2" fill="white">
                    <use xlink:href="#path-1"></use>
                </mask>
                <g id="Clip-59"></g>
                <polygon id="Fill-58" fill="#066DA5" mask="url(#mask-2)" points="93.4 91.064 97.4 91.064 97.4 67.064 93.4 67.064"></polygon>
                <path d="M415.444,125.2 C414.952,126.208 414.532,127.06 414.208,127.7 C414.032,128.044 413.892,128.32 413.504,129.012 C407.568,140.484 398.844,147.668 387.784,151.556 C379.028,154.632 371.092,155.32 359.196,155.076 C359.08,155.072 358.332,155.056 357.116,155.032 L354.364,154.988 L353.34,157.56 C318.344,245.312 241.928,291.944 141.052,291.944 C83.384,291.944 45.752,270.104 24.992,232.844 C16.98,218.468 11.888,202.332 9.5,185.82 C7.844,174.364 7.616,163.248 8.532,155.032 L25.4,155.032 L25.4,155.064 L293.4,155.064 L293.4,154.984 C309.248,154.808 324.06,149.904 331.496,144.128 L334.772,141.58 L332.128,138.368 C327.176,132.352 323.984,123.536 323.028,114.348 C321.896,100.328 325.292,85.476 332.384,74.708 L334.16,72.028 L336.716,73.74 C352.244,85.872 360.212,99.348 361.056,114.984 L361.324,119.94 L366.088,118.656 C381.66,114.46 404.468,116.508 412.836,122.14 L415.924,124.216 C415.784,124.508 415.644,124.8 415.444,125.2 Z M33.4,146.98 L77.4,146.98 L77.4,107.064 L33.4,107.064 L33.4,146.98 Z M85.4,146.98 L129.4,146.98 L129.4,107.064 L85.4,107.064 L85.4,146.98 Z M85.4,99.064 L129.4,99.064 L129.4,59.064 L85.4,59.064 L85.4,99.064 Z M137.4,146.98 L181.4,146.98 L181.4,107.064 L137.4,107.064 L137.4,146.98 Z M137.4,99.064 L181.4,99.064 L181.4,59.064 L137.4,59.064 L137.4,99.064 Z M189.4,146.98 L233.4,146.98 L233.4,107.064 L189.4,107.064 L189.4,146.98 Z M189.4,99.064 L233.4,99.064 L233.4,59.064 L189.4,59.064 L189.4,99.064 Z M189.4,51.064 L233.4,51.064 L233.4,11.064 L189.4,11.064 L189.4,51.064 Z M241.4,146.98 L285.4,146.98 L285.4,107.064 L241.4,107.064 L241.4,146.98 Z M422.684,128.636 C423.116,127.748 423.584,126.796 424.04,125.84 C424.204,125.508 424.352,125.2 424.652,124.572 L426.164,121.416 L417.276,115.44 C407.668,108.976 385.76,106.54 368.596,109.828 C366.384,93.648 357.308,79.604 341.388,67.196 L331.94,60.86 L325.724,70.252 C317.592,82.596 313.78,99.248 315.064,115.092 C316.008,124.18 318.82,132.948 323.324,139.888 C316.52,143.684 305.344,146.788 293.4,146.948 L293.4,99.064 L241.4,99.064 L241.4,3.064 L181.4,3.064 L181.4,51.064 L77.4,51.064 L77.4,99.064 L25.4,99.064 L25.4,146.98 L1.672,146.98 L1.104,150.336 C-0.448,159.584 -0.428,173.08 1.584,186.98 C4.1,204.424 9.492,221.492 18.016,236.784 C40.2,276.604 80.508,300 141.052,300 C244.068,300 322.976,252.436 359.72,163.14 C372.128,163.364 380.708,162.572 390.424,159.16 C403.288,154.632 413.604,146.16 420.524,132.876 C420.912,132.236 421.476,131.1 422.684,128.636 L422.684,128.636 Z" id="Fill-60" fill="#066DA5" mask="url(#mask-2)"></path>
            </g>
            <path d="M743.788,174.908 C747.228,171.472 751.24,168.76 755.824,166.768 C760.408,164.78 765.312,163.788 770.54,163.788 C775.268,163.788 779.636,164.584 783.648,166.176 C787.66,167.768 791.492,170.116 795.144,173.224 C797.292,174.96 799.728,175.828 802.448,175.828 C805.672,175.828 808.34,174.744 810.452,172.576 C812.568,170.404 813.62,167.692 813.62,164.436 C813.62,161.04 812.332,158.184 809.752,155.868 C798.728,146.032 785.652,141.116 770.54,141.116 C753.924,141.116 739.744,147.048 727.996,158.908 C716.252,170.768 710.38,185.084 710.38,201.864 C710.38,218.64 716.252,232.956 727.996,244.816 C739.744,256.676 753.924,262.604 770.54,262.604 C785.584,262.604 798.652,257.688 809.752,247.856 C812.116,245.468 813.3,242.684 813.3,239.5 C813.3,236.248 812.244,233.556 810.128,231.424 C808.02,229.288 805.352,228.22 802.124,228.22 C799.408,228.292 797.044,229.092 795.036,230.604 C791.452,233.716 787.66,236.048 783.648,237.604 C779.636,239.16 775.268,239.94 770.54,239.94 C765.312,239.94 760.408,238.94 755.824,236.952 C751.24,234.964 747.228,232.256 743.788,228.816 C740.352,225.384 737.648,221.352 735.68,216.724 C733.712,212.096 732.724,207.14 732.724,201.864 C732.724,196.584 733.712,191.628 735.68,187 C737.648,182.372 740.352,178.34 743.788,174.908 Z M930.3,152.4 C930.3,150.88 929.996,149.436 929.388,148.06 C928.776,146.684 927.972,145.472 926.968,144.424 C925.968,143.376 924.784,142.564 923.424,141.984 C922.064,141.408 920.592,141.116 919.02,141.116 C916.8,141.116 914.792,141.696 913.004,142.852 L848.756,185.048 L848.756,100.44 C848.756,97.256 847.664,94.564 845.48,92.356 C843.296,90.152 840.664,89.048 837.584,89.048 C834.432,89.048 831.764,90.152 829.584,92.356 C827.396,94.564 826.304,97.256 826.304,100.44 L826.304,251.22 C826.304,254.328 827.396,257.004 829.584,259.244 C831.764,261.484 834.432,262.604 837.584,262.604 C840.664,262.604 843.296,261.484 845.48,259.244 C847.664,257.004 848.756,254.328 848.756,251.22 L848.756,212.06 L861.864,203.38 L911.5,259.68 C913.504,261.628 916.012,262.604 919.02,262.604 C920.592,262.604 922.064,262.316 923.424,261.74 C924.784,261.16 925.968,260.348 926.968,259.296 C927.972,258.252 928.776,257.04 929.388,255.664 C929.996,254.288 930.3,252.844 930.3,251.324 C930.3,248.36 929.26,245.724 927.184,243.408 L880.988,190.908 L926.004,161.4 C928.868,159.448 930.3,156.448 930.3,152.4 Z M672.396,216.56 C670.424,221.152 667.74,225.184 664.336,228.656 C660.936,232.124 656.94,234.876 652.36,236.9 C647.772,238.924 642.868,239.94 637.64,239.94 C632.34,239.94 627.4,238.924 622.812,236.9 C618.232,234.876 614.252,232.144 610.892,228.708 C607.524,225.272 604.856,221.244 602.888,216.612 C600.916,211.984 599.928,207.072 599.928,201.864 C599.928,196.656 600.916,191.74 602.888,187.108 C604.856,182.48 607.524,178.448 610.892,175.016 C614.252,171.58 618.232,168.852 622.812,166.824 C627.4,164.8 632.34,163.788 637.64,163.788 C642.868,163.788 647.772,164.8 652.36,166.824 C656.94,168.852 660.936,171.6 664.336,175.068 C667.74,178.54 670.424,182.572 672.396,187.164 C674.364,191.756 675.352,196.656 675.352,201.864 C675.352,207.072 674.364,211.968 672.396,216.56 Z M680.184,158.908 C668.296,147.048 654.112,141.116 637.64,141.116 C621.024,141.116 606.844,147.048 595.096,158.908 C583.352,170.768 577.476,185.084 577.476,201.864 C577.476,218.64 583.352,232.956 595.096,244.816 C606.844,256.676 621.024,262.604 637.64,262.604 C654.112,262.604 668.296,256.676 680.184,244.816 C691.928,233.104 697.804,218.784 697.804,201.864 C697.732,193.472 696.248,185.7 693.344,178.54 C690.444,171.38 686.06,164.836 680.184,158.908 Z M966.404,190.584 C967.548,186.604 969.304,182.968 971.668,179.68 C974.032,176.388 976.824,173.568 980.048,171.22 C983.268,168.868 986.816,167.04 990.684,165.74 C994.552,164.436 998.524,163.788 1002.608,163.788 C1006.692,163.788 1010.648,164.436 1014.48,165.74 C1018.312,167.04 1021.82,168.868 1025.008,171.22 C1028.196,173.568 1030.988,176.388 1033.388,179.68 C1035.788,182.968 1037.592,186.604 1038.812,190.584 L966.404,190.584 Z M1045.152,158.908 C1033.26,147.048 1019.084,141.116 1002.608,141.116 C985.992,141.116 971.808,147.048 960.064,158.908 C948.316,170.768 942.444,185.084 942.444,201.864 C942.444,218.64 948.316,232.956 960.064,244.816 C971.808,256.676 985.992,262.604 1002.608,262.604 C1017.72,262.604 1030.828,257.688 1041.928,247.856 C1044.08,245.612 1045.152,242.904 1045.152,239.72 C1045.152,236.464 1044.092,233.772 1041.984,231.636 C1039.872,229.504 1037.204,228.44 1033.98,228.44 C1031.184,228.512 1028.716,229.448 1026.568,231.26 C1023.2,234.152 1019.548,236.32 1015.608,237.768 C1011.668,239.212 1007.336,239.94 1002.608,239.94 C998.452,239.94 994.46,239.284 990.628,237.984 C986.796,236.68 983.288,234.856 980.1,232.504 C976.916,230.156 974.136,227.336 971.772,224.044 C969.412,220.756 967.62,217.12 966.404,213.144 L1051.492,213.144 C1054.64,213.144 1057.308,212.08 1059.496,209.94 C1061.68,207.808 1062.768,205.116 1062.768,201.864 C1062.768,193.472 1061.304,185.684 1058.368,178.488 C1055.428,171.288 1051.024,164.764 1045.152,158.908 Z M539.28,216.56 C537.308,221.152 534.624,225.184 531.224,228.656 C527.82,232.124 523.828,234.876 519.244,236.9 C514.66,238.924 509.752,239.94 504.524,239.94 C499.228,239.94 494.28,238.924 489.7,236.9 C485.112,234.876 481.14,232.144 477.772,228.708 C474.408,225.272 471.74,221.244 469.768,216.612 C467.8,211.984 466.816,207.072 466.816,201.864 C466.816,196.656 467.8,191.74 469.768,187.108 C471.74,182.48 474.408,178.448 477.772,175.016 C481.14,171.58 485.112,168.852 489.7,166.824 C494.28,164.8 499.228,163.788 504.524,163.788 C509.752,163.788 514.66,164.8 519.244,166.824 C523.828,168.852 527.82,171.6 531.224,175.068 C534.624,178.54 537.308,182.572 539.28,187.164 C541.252,191.756 542.236,196.656 542.236,201.864 C542.236,207.072 541.252,211.968 539.28,216.56 Z M553.408,89.048 C550.184,89.048 547.516,90.116 545.404,92.252 C543.288,94.384 542.236,97.076 542.236,100.332 L542.236,154.46 C531.348,145.564 518.776,141.116 504.524,141.116 C487.912,141.116 473.728,147.048 461.98,158.908 C450.236,170.768 444.364,185.084 444.364,201.864 C444.364,218.64 450.236,232.956 461.98,244.816 C473.728,256.676 487.912,262.604 504.524,262.604 C521,262.604 535.18,256.676 547.072,244.816 C558.816,233.104 564.688,218.784 564.688,201.864 L564.688,100.332 C564.688,97.076 563.596,94.384 561.412,92.252 C559.228,90.116 556.56,89.048 553.408,89.048 Z M1163.012,148.708 C1161.008,146.756 1158.48,145.22 1155.436,144.1 C1152.396,142.98 1149.064,142.2 1145.444,141.768 C1141.828,141.336 1138.444,141.116 1135.292,141.116 C1128.132,141.116 1121.4,142.272 1115.096,144.588 C1108.792,146.904 1102.956,150.228 1097.584,154.568 L1097.584,152.4 C1097.584,149.288 1096.492,146.632 1094.308,144.424 C1092.12,142.22 1089.492,141.116 1086.412,141.116 C1083.256,141.116 1080.588,142.22 1078.408,144.424 C1076.224,146.632 1075.128,149.288 1075.128,152.4 L1075.128,251.324 C1075.128,254.436 1076.224,257.092 1078.408,259.296 C1080.588,261.504 1083.256,262.604 1086.412,262.604 C1089.492,262.604 1092.12,261.504 1094.308,259.296 C1096.492,257.092 1097.584,254.436 1097.584,251.324 L1097.584,201.864 C1097.584,196.584 1098.572,191.628 1100.54,187 C1102.508,182.372 1105.196,178.34 1108.596,174.908 C1112,171.472 1115.992,168.76 1120.576,166.768 C1125.16,164.78 1130.068,163.788 1135.292,163.788 C1140.592,163.788 1145.5,164.692 1150.012,166.5 C1151.804,167.296 1153.38,167.692 1154.74,167.692 C1156.316,167.692 1157.78,167.404 1159.144,166.824 C1160.504,166.248 1161.688,165.436 1162.688,164.384 C1163.692,163.336 1164.496,162.124 1165.104,160.752 C1165.716,159.376 1166.02,157.896 1166.02,156.304 C1166.02,153.192 1165.016,150.664 1163.012,148.708 L1163.012,148.708 Z" id="Fill-62" fill="#066DA5"></path>
        </g>
    </g>
</svg>