<?xml version="1.0" encoding="utf-8"?>
<!-- Generator: Adobe Illustrator 16.0.0, SVG Export Plug-In . SVG Version: 6.00 Build 0)  -->
<!DOCTYPE svg PUBLIC "-//W3C//DTD SVG 1.1//EN" "http://www.w3.org/Graphics/SVG/1.1/DTD/svg11.dtd">
<svg version="1.1" id="Layer_1" xmlns="http://www.w3.org/2000/svg" xmlns:xlink="http://www.w3.org/1999/xlink" x="0px" y="0px"
	 width="3000px" height="1600px" viewBox="0 0 3000 1600" enable-background="new 0 0 3000 1600" xml:space="preserve">
<rect id="_x3C_Slice_x3E_" x="586" y="-298" fill="none" width="1985" height="2179"/>
<g>
	<g>
		<path fill="#ED1C24" d="M532.911,877.383H229.149V365.751h303.762v110.936H367.382v80.49h153.281v110.937H367.382v96.583h165.529
			V877.383z"/>
		<path fill="#ED1C24" d="M760.733,691.21v186.172H622.501V365.751h167.628c139.05,0,208.575,50.394,208.575,151.181
			c0,59.264-28.93,105.108-86.79,137.533l149.082,222.918H904.215L795.729,691.21H760.733z M760.733,587.273h25.896
			c48.294,0,72.442-21.348,72.442-64.042c0-35.224-23.682-52.844-71.042-52.844h-27.297V587.273z"/>
		<path fill="#ED1C24" d="M1245.774,691.21v186.172h-138.234V365.751h167.63c139.049,0,208.574,50.394,208.574,151.181
			c0,59.264-28.93,105.108-86.789,137.533l149.077,222.918h-156.776L1280.77,691.21H1245.774z M1245.774,587.273h25.896
			c48.294,0,72.44-21.348,72.44-64.042c0-35.224-23.68-52.844-71.04-52.844h-27.297V587.273z"/>
		<path fill="#ED1C24" d="M2071.317,620.869c0,86.09-21.115,151.526-63.342,196.32c-42.229,44.795-104.056,67.192-185.478,67.192
			c-80.257,0-141.792-22.514-184.603-67.542c-42.812-45.018-64.217-110.581-64.217-196.671c0-85.156,21.29-150.185,63.866-195.101
			c42.579-44.911,104.464-67.366,185.651-67.366c81.426,0,143.133,22.28,185.128,66.841
			C2050.318,469.109,2071.317,534.552,2071.317,620.869z M1719.262,620.869c0,98.921,34.411,148.377,103.236,148.377
			c34.995,0,60.951-12.016,77.865-36.041c16.914-24.025,25.371-61.471,25.371-112.336c0-51.094-8.573-88.831-25.722-113.211
			c-17.148-24.376-42.754-36.571-76.816-36.571C1753.906,471.087,1719.262,521.015,1719.262,620.869z"/>
		<path fill="#ED1C24" d="M2301.939,691.21v186.172h-138.234V365.751h167.631c139.048,0,208.573,50.394,208.573,151.181
			c0,59.264-28.929,105.108-86.788,137.533l149.08,222.918H2445.42L2336.935,691.21H2301.939z M2301.939,587.273h25.896
			c48.293,0,72.44-21.348,72.44-64.042c0-35.224-23.681-52.844-71.04-52.844h-27.297V587.273z"/>
		<path fill="#ED1C24" d="M2755.482,696.81h-115.485l-17.847-331.059h151.182L2755.482,696.81z M2623.548,819.29
			c0-21.221,6.301-37.737,18.899-49.519c12.599-11.772,30.913-17.673,54.941-17.673c23.797,0,41.821,5.901,54.069,17.673
			c12.247,11.782,18.374,28.298,18.374,49.519c0,20.997-6.357,37.396-19.073,49.169c-12.716,11.781-30.506,17.673-53.37,17.673
			c-23.096,0-41.176-5.892-54.242-17.673C2630.082,856.687,2623.548,840.287,2623.548,819.29z"/>
	</g>
	<g>
		<path fill="none" stroke="#ED1C24" stroke-width="84" d="M532.911,877.383H229.149V365.751h303.762v110.936H367.382v80.49h153.281
			v110.937H367.382v96.583h165.529V877.383z"/>
		<path fill="none" stroke="#ED1C24" stroke-width="84" d="M760.733,691.21v186.172H622.501V365.751h167.628
			c139.05,0,208.575,50.394,208.575,151.181c0,59.264-28.93,105.108-86.79,137.533l149.082,222.918H904.215L795.729,691.21H760.733z
			 M760.733,587.273h25.896c48.294,0,72.442-21.348,72.442-64.042c0-35.224-23.682-52.844-71.042-52.844h-27.297V587.273z"/>
		<path fill="none" stroke="#ED1C24" stroke-width="84" d="M1245.774,691.21v186.172h-138.234V365.751h167.63
			c139.049,0,208.574,50.394,208.574,151.181c0,59.264-28.93,105.108-86.789,137.533l149.077,222.918h-156.776L1280.77,691.21
			H1245.774z M1245.774,587.273h25.896c48.294,0,72.44-21.348,72.44-64.042c0-35.224-23.68-52.844-71.04-52.844h-27.297V587.273z"/>
		<path fill="none" stroke="#ED1C24" stroke-width="84" d="M2071.317,620.869c0,86.09-21.115,151.526-63.342,196.32
			c-42.229,44.795-104.056,67.192-185.478,67.192c-80.257,0-141.792-22.514-184.603-67.542
			c-42.812-45.018-64.217-110.581-64.217-196.671c0-85.156,21.29-150.185,63.866-195.101
			c42.579-44.911,104.464-67.366,185.651-67.366c81.426,0,143.133,22.28,185.128,66.841
			C2050.318,469.109,2071.317,534.552,2071.317,620.869z M1719.262,620.869c0,98.921,34.411,148.377,103.236,148.377
			c34.995,0,60.951-12.016,77.865-36.041c16.914-24.025,25.371-61.471,25.371-112.336c0-51.094-8.573-88.831-25.722-113.211
			c-17.148-24.376-42.754-36.571-76.816-36.571C1753.906,471.087,1719.262,521.015,1719.262,620.869z"/>
		<path fill="none" stroke="#ED1C24" stroke-width="84" d="M2301.939,691.21v186.172h-138.234V365.751h167.631
			c139.048,0,208.573,50.394,208.573,151.181c0,59.264-28.929,105.108-86.788,137.533l149.08,222.918H2445.42L2336.935,691.21
			H2301.939z M2301.939,587.273h25.896c48.293,0,72.44-21.348,72.44-64.042c0-35.224-23.681-52.844-71.04-52.844h-27.297V587.273z"
			/>
		<path fill="none" stroke="#ED1C24" stroke-width="84" d="M2755.482,696.81h-115.485l-17.847-331.059h151.182L2755.482,696.81z
			 M2623.548,819.29c0-21.221,6.301-37.737,18.899-49.519c12.599-11.772,30.913-17.673,54.941-17.673
			c23.797,0,41.821,5.901,54.069,17.673c12.247,11.782,18.374,28.298,18.374,49.519c0,20.997-6.357,37.396-19.073,49.169
			c-12.716,11.781-30.506,17.673-53.37,17.673c-23.096,0-41.176-5.892-54.242-17.673
			C2630.082,856.687,2623.548,840.287,2623.548,819.29z"/>
	</g>
	<g>
		<path fill="none" stroke="#FFFFFF" stroke-width="32" d="M532.911,877.383H229.149V365.751h303.762v110.936H367.382v80.49h153.281
			v110.937H367.382v96.583h165.529V877.383z"/>
		<path fill="none" stroke="#FFFFFF" stroke-width="32" d="M760.733,691.21v186.172H622.501V365.751h167.628
			c139.05,0,208.575,50.394,208.575,151.181c0,59.264-28.93,105.108-86.79,137.533l149.082,222.918H904.215L795.729,691.21H760.733z
			 M760.733,587.273h25.896c48.294,0,72.442-21.348,72.442-64.042c0-35.224-23.682-52.844-71.042-52.844h-27.297V587.273z"/>
		<path fill="none" stroke="#FFFFFF" stroke-width="32" d="M1245.774,691.21v186.172h-138.234V365.751h167.63
			c139.049,0,208.574,50.394,208.574,151.181c0,59.264-28.93,105.108-86.789,137.533l149.077,222.918h-156.776L1280.77,691.21
			H1245.774z M1245.774,587.273h25.896c48.294,0,72.44-21.348,72.44-64.042c0-35.224-23.68-52.844-71.04-52.844h-27.297V587.273z"/>
		<path fill="none" stroke="#FFFFFF" stroke-width="32" d="M2071.317,620.869c0,86.09-21.115,151.526-63.342,196.32
			c-42.229,44.795-104.056,67.192-185.478,67.192c-80.257,0-141.792-22.514-184.603-67.542
			c-42.812-45.018-64.217-110.581-64.217-196.671c0-85.156,21.29-150.185,63.866-195.101
			c42.579-44.911,104.464-67.366,185.651-67.366c81.426,0,143.133,22.28,185.128,66.841
			C2050.318,469.109,2071.317,534.552,2071.317,620.869z M1719.262,620.869c0,98.921,34.411,148.377,103.236,148.377
			c34.995,0,60.951-12.016,77.865-36.041c16.914-24.025,25.371-61.471,25.371-112.336c0-51.094-8.573-88.831-25.722-113.211
			c-17.148-24.376-42.754-36.571-76.816-36.571C1753.906,471.087,1719.262,521.015,1719.262,620.869z"/>
		<path fill="none" stroke="#FFFFFF" stroke-width="32" d="M2301.939,691.21v186.172h-138.234V365.751h167.631
			c139.048,0,208.573,50.394,208.573,151.181c0,59.264-28.929,105.108-86.788,137.533l149.08,222.918H2445.42L2336.935,691.21
			H2301.939z M2301.939,587.273h25.896c48.293,0,72.44-21.348,72.44-64.042c0-35.224-23.681-52.844-71.04-52.844h-27.297V587.273z"
			/>
		<path fill="none" stroke="#FFFFFF" stroke-width="32" d="M2755.482,696.81h-115.485l-17.847-331.059h151.182L2755.482,696.81z
			 M2623.548,819.29c0-21.221,6.301-37.737,18.899-49.519c12.599-11.772,30.913-17.673,54.941-17.673
			c23.797,0,41.821,5.901,54.069,17.673c12.247,11.782,18.374,28.298,18.374,49.519c0,20.997-6.357,37.396-19.073,49.169
			c-12.716,11.781-30.506,17.673-53.37,17.673c-23.096,0-41.176-5.892-54.242-17.673
			C2630.082,856.687,2623.548,840.287,2623.548,819.29z"/>
	</g>
	<g>
		<path fill="none" stroke="#ED1C24" stroke-width="7" d="M532.911,877.383H229.149V365.751h303.762v110.936H367.382v80.49h153.281
			v110.937H367.382v96.583h165.529V877.383z"/>
		<path fill="none" stroke="#ED1C24" stroke-width="7" d="M760.733,691.21v186.172H622.501V365.751h167.628
			c139.05,0,208.575,50.394,208.575,151.181c0,59.264-28.93,105.108-86.79,137.533l149.082,222.918H904.215L795.729,691.21H760.733z
			 M760.733,587.273h25.896c48.294,0,72.442-21.348,72.442-64.042c0-35.224-23.682-52.844-71.042-52.844h-27.297V587.273z"/>
		<path fill="none" stroke="#ED1C24" stroke-width="7" d="M1245.774,691.21v186.172h-138.234V365.751h167.63
			c139.049,0,208.574,50.394,208.574,151.181c0,59.264-28.93,105.108-86.789,137.533l149.077,222.918h-156.776L1280.77,691.21
			H1245.774z M1245.774,587.273h25.896c48.294,0,72.44-21.348,72.44-64.042c0-35.224-23.68-52.844-71.04-52.844h-27.297V587.273z"/>
		<path fill="none" stroke="#ED1C24" stroke-width="7" d="M2071.317,620.869c0,86.09-21.115,151.526-63.342,196.32
			c-42.229,44.795-104.056,67.192-185.478,67.192c-80.257,0-141.792-22.514-184.603-67.542
			c-42.812-45.018-64.217-110.581-64.217-196.671c0-85.156,21.29-150.185,63.866-195.101
			c42.579-44.911,104.464-67.366,185.651-67.366c81.426,0,143.133,22.28,185.128,66.841
			C2050.318,469.109,2071.317,534.552,2071.317,620.869z M1719.262,620.869c0,98.921,34.411,148.377,103.236,148.377
			c34.995,0,60.951-12.016,77.865-36.041c16.914-24.025,25.371-61.471,25.371-112.336c0-51.094-8.573-88.831-25.722-113.211
			c-17.148-24.376-42.754-36.571-76.816-36.571C1753.906,471.087,1719.262,521.015,1719.262,620.869z"/>
		<path fill="none" stroke="#ED1C24" stroke-width="7" d="M2301.939,691.21v186.172h-138.234V365.751h167.631
			c139.048,0,208.573,50.394,208.573,151.181c0,59.264-28.929,105.108-86.788,137.533l149.08,222.918H2445.42L2336.935,691.21
			H2301.939z M2301.939,587.273h25.896c48.293,0,72.44-21.348,72.44-64.042c0-35.224-23.681-52.844-71.04-52.844h-27.297V587.273z"
			/>
		<path fill="none" stroke="#ED1C24" stroke-width="7" d="M2755.482,696.81h-115.485l-17.847-331.059h151.182L2755.482,696.81z
			 M2623.548,819.29c0-21.221,6.301-37.737,18.899-49.519c12.599-11.772,30.913-17.673,54.941-17.673
			c23.797,0,41.821,5.901,54.069,17.673c12.247,11.782,18.374,28.298,18.374,49.519c0,20.997-6.357,37.396-19.073,49.169
			c-12.716,11.781-30.506,17.673-53.37,17.673c-23.096,0-41.176-5.892-54.242-17.673
			C2630.082,856.687,2623.548,840.287,2623.548,819.29z"/>
	</g>
</g>
<g>
	<path fill="#6D6E71" d="M189.069,980.853h40.372c18.193,0,31.555,3.092,40.075,9.255c8.525,6.183,12.789,15.515,12.789,27.996
		c0,8.527-2.601,15.622-7.801,21.3c-5.201,5.666-12.803,9.313-22.806,10.917v0.603c11.743,1.749,20.39,5.462,25.926,11.131
		c5.536,5.676,8.307,13.579,8.307,23.71c0,13.56-4.496,24.011-13.493,31.321c-8.997,7.308-21.751,10.975-38.262,10.975h-45.106
		V980.853z M199.339,1046.402h32.419c13.829,0,23.88-2.304,30.155-6.902c6.28-4.598,9.42-11.791,9.42-21.59
		c0-9.809-3.543-16.915-10.625-21.348s-17.639-6.648-31.667-6.648h-29.703V1046.402z M199.339,1055.462v63.528h34.636
		c27.253,0,40.882-11.074,40.882-33.227c0-20.2-14.367-30.302-43.098-30.302H199.339z"/>
	<path fill="#6D6E71" d="M328.62,1063.919v64.141h-10.271V980.853h35.04c18.26,0,31.753,3.374,40.473,10.121
		c8.729,6.735,13.095,16.895,13.095,30.456c0,9.866-2.605,18.197-7.807,24.973c-5.195,6.776-13.104,11.637-23.714,14.592
		l39.973,67.065h-12.278l-37.96-64.141H328.62z M328.62,1055.064h28.093c12.419,0,22.053-2.771,28.896-8.313
		c6.849-5.53,10.271-13.706,10.271-24.517c0-11.208-3.358-19.364-10.07-24.468c-6.708-5.103-17.654-7.66-32.824-7.66H328.62
		V1055.064z"/>
	<path fill="#6D6E71" d="M511.763,1076.1H451.96l-20.541,51.96h-11.374l59.201-147.81h6.542l57.996,147.81h-11.578L511.763,1076.1z
		 M455.684,1066.836h52.663l-20.04-53.058c-1.678-4.171-3.69-9.925-6.042-17.322c-1.808,6.444-3.791,12.287-5.94,17.526
		L455.684,1066.836z"/>
	<path fill="#6D6E71" d="M564.627,1128.06V980.853h10.275v147.207H564.627z"/>
	<path fill="#6D6E71" d="M723.614,1128.06h-10.372l-87.199-130.701h-0.806c0.806,15.574,1.21,27.327,1.21,35.249v95.452h-9.866
		V980.853h10.274l87.086,130.496h0.607c-0.607-12.094-0.909-23.564-0.909-34.442v-96.054h9.974V1128.06z"/>
	<path fill="#6D6E71" d="M881.687,988.009c-18.46,0-32.988,5.89-43.598,17.71c-10.606,11.821-15.905,27.998-15.905,48.538
		c0,21.007,4.998,37.319,15,48.926c10.003,11.616,24.302,17.419,42.894,17.419c12.35,0,23.695-1.574,34.027-4.723v9.059
		c-9.73,3.423-21.881,5.134-36.444,5.134c-20.677,0-36.954-6.688-48.833-20.036c-11.885-13.355-17.824-32.02-17.824-55.982
		c0-14.971,2.838-28.152,8.511-39.574c5.667-11.414,13.828-20.219,24.467-26.433c10.635-6.201,23-9.312,37.101-9.312
		c14.362,0,27.219,2.683,38.563,8.058l-4.131,9.266C904.784,990.69,893.503,988.009,881.687,988.009z"/>
	<path fill="#6D6E71" d="M1070.674,1054.257c0,23.36-5.838,41.829-17.518,55.421c-11.68,13.599-27.792,20.394-48.333,20.394
		c-20.467,0-36.546-6.795-48.226-20.394c-11.68-13.592-17.518-32.141-17.518-55.625c0-23.428,5.887-41.879,17.673-55.332
		c11.777-13.453,27.875-20.182,48.274-20.182c20.541,0,36.62,6.756,48.227,20.288
		C1064.871,1012.351,1070.674,1030.829,1070.674,1054.257z M950.255,1054.257c0,21.074,4.7,37.367,14.1,48.878
		c9.396,11.52,22.889,17.264,40.469,17.264c17.722,0,31.268-5.696,40.634-17.119c9.361-11.412,14.042-27.744,14.042-49.022
		c0-21.211-4.681-37.474-14.042-48.789c-9.366-11.315-22.839-16.964-40.43-16.964c-17.518,0-31.024,5.706-40.526,17.118
		C955.003,1017.034,950.255,1033.25,950.255,1054.257z"/>
	<path fill="#6D6E71" d="M1212.742,980.853v95.247c0,16.915-4.895,30.146-14.698,39.672c-9.804,9.537-23.461,14.3-40.979,14.3
		c-17.051,0-30.359-4.783-39.919-14.35c-9.566-9.563-14.348-22.901-14.348-40.029v-94.84h10.367v95.247
		c0,14.164,3.926,25.188,11.777,33.07c7.855,7.895,18.966,11.84,33.333,11.84c14.028,0,24.9-3.878,32.624-11.626
		c7.713-7.756,11.573-18.519,11.573-32.272v-96.259H1212.742z"/>
	<path fill="#6D6E71" d="M1252.816,1128.06V980.853h10.271v137.533h70.181v9.674H1252.816z"/>
	<path fill="#6D6E71" d="M1470.401,1053.042c0,24.71-6.483,43.385-19.437,56.031c-12.953,12.658-31.981,18.986-57.086,18.986
		h-35.239V980.853h39.769c23.496,0,41.368,6.144,53.616,18.422C1464.268,1011.562,1470.401,1029.488,1470.401,1053.042z
		 M1459.224,1053.449c0-21.075-5.357-36.939-16.06-47.573c-10.708-10.637-26.432-15.962-47.17-15.962h-27.088v129.076h24.365
		C1437.239,1118.99,1459.224,1097.146,1459.224,1053.449z"/>
	<path fill="#6D6E71" d="M1611.261,1128.06h-10.372L1513.7,997.358h-0.816c0.816,15.574,1.214,27.327,1.214,35.249v95.452h-9.871
		V980.853h10.271l87.101,130.496h0.603c-0.603-12.094-0.914-23.564-0.914-34.442v-96.054h9.975V1128.06z"/>
	<path fill="#6D6E71" d="M1657.882,980.853l1.205,2.012c-5.035,17.79-10.877,33.938-17.518,48.432h-6.552
		c1.945-6.445,3.996-14.553,6.145-24.313c2.148-9.768,3.79-18.479,4.938-26.13H1657.882z"/>
	<path fill="#6D6E71" d="M1721.214,1128.06h-10.381V990.516h-47.818v-9.663h106.017v9.663h-47.817V1128.06z"/>
	<path fill="#6D6E71" d="M1844.449,980.853h40.38c18.179,0,31.536,3.092,40.07,9.255c8.514,6.183,12.782,15.515,12.782,27.996
		c0,8.527-2.594,15.622-7.806,21.3c-5.201,5.666-12.802,9.313-22.804,10.917v0.603c11.75,1.749,20.394,5.462,25.934,11.131
		c5.531,5.676,8.303,13.579,8.303,23.71c0,13.56-4.502,24.011-13.494,31.321c-8.992,7.308-21.755,10.975-38.262,10.975h-45.104
		V980.853z M1854.712,1046.402h32.421c13.822,0,23.884-2.304,30.165-6.902c6.271-4.598,9.409-11.791,9.409-21.59
		c0-9.809-3.549-16.915-10.626-21.348c-7.076-4.433-17.643-6.648-31.659-6.648h-29.71V1046.402z M1854.712,1055.462v63.528h34.647
		c27.247,0,40.867-11.074,40.867-33.227c0-20.2-14.359-30.302-43.094-30.302H1854.712z"/>
	<path fill="#6D6E71" d="M2054.18,1128.06h-80.453V980.853h80.453v9.47h-70.188v55.682h66.26v9.458h-66.26v63.128h70.188V1128.06z"
		/>
	<path fill="#6D6E71" d="M2151.33,1128.06h-10.264V980.853h80.645v9.47h-70.381v62.418h66.463v9.564h-66.463V1128.06z"/>
	<path fill="#6D6E71" d="M2368.323,1054.257c0,23.36-5.853,41.829-17.526,55.421c-11.676,13.599-27.792,20.394-48.322,20.394
		c-20.484,0-36.553-6.795-48.227-20.394c-11.695-13.592-17.528-32.141-17.528-55.625c0-23.428,5.893-41.879,17.673-55.332
		c11.773-13.453,27.871-20.182,48.275-20.182c20.541,0,36.62,6.756,48.227,20.288
		C2362.5,1012.351,2368.323,1030.829,2368.323,1054.257z M2247.9,1054.257c0,21.074,4.693,37.367,14.094,48.878
		c9.393,11.52,22.885,17.264,40.48,17.264c17.72,0,31.251-5.696,40.624-17.119c9.36-11.412,14.046-27.744,14.046-49.022
		c0-21.211-4.686-37.474-14.046-48.789c-9.373-11.315-22.837-16.964-40.431-16.964c-17.526,0-31.03,5.706-40.527,17.118
		C2252.645,1017.034,2247.9,1033.25,2247.9,1054.257z"/>
	<path fill="#6D6E71" d="M2510.387,980.853v95.247c0,16.915-4.908,30.146-14.699,39.672c-9.797,9.537-23.455,14.3-40.982,14.3
		c-17.051,0-30.358-4.783-39.925-14.35c-9.566-9.563-14.347-22.901-14.347-40.029v-94.84h10.372v95.247
		c0,14.164,3.925,25.188,11.78,33.07c7.855,7.895,18.956,11.84,33.324,11.84c14.028,0,24.906-3.878,32.624-11.626
		c7.719-7.756,11.587-18.519,11.587-32.272v-96.259H2510.387z"/>
	<path fill="#6D6E71" d="M2657.486,1128.06h-10.363l-87.197-130.701h-0.807c0.807,15.574,1.204,27.327,1.204,35.249v95.452h-9.867
		V980.853h10.265l87.102,130.496h0.603c-0.603-12.094-0.903-23.564-0.903-34.442v-96.054h9.965V1128.06z"/>
	<path fill="#6D6E71" d="M2810.932,1053.042c0,24.71-6.475,43.385-19.432,56.031c-12.959,12.658-31.983,18.986-57.094,18.986
		h-35.229V980.853h39.761c23.486,0,41.373,6.144,53.621,18.422C2804.808,1011.562,2810.932,1029.488,2810.932,1053.042z
		 M2799.753,1053.449c0-21.075-5.357-36.939-16.059-47.573c-10.703-10.637-26.434-15.962-47.169-15.962h-27.082v129.076h24.361
		C2777.781,1118.99,2799.753,1097.146,2799.753,1053.449z"/>
</g>
</svg>
