<svg xmlns="http://www.w3.org/2000/svg" viewBox="0 0 103.36 113.12"><defs><style>.cls-1{fill:#fff;}.cls-2{fill:#9b0000;}</style></defs><title>资源 8</title><g id="图层_2" data-name="图层 2"><g id="图层_1-2" data-name="图层 1"><path class="cls-1" d="M75.1,2.52S79.34,9.95,69,9.81C64,9.74,32.7-.59,27.59,0s-2,1.24-5.15,1.86S19.85,2,17.68,3.52s-2.29,3.93-6.91,4.15C5.83,7.91,2.09,6.76.38,8.93s2.75,6.15,4.83,6.9c1.49.54.7,4.07,4.42,3.14s18.45-5.3,34.29,4.09C58.72,31.84,71.2,51,70.1,73.75,69,97.19,53.74,101.41,44.21,101.12,21.89,100.44,9.49,79.7,9.49,79.7s5.41,31.79,35,33.37c17.42.93,38.6-11.83,39.52-40.9,1-31.79-11.92-38.55-20.33-51.22,0,0-1.86.9,9,.72C77.29,21.6,84,18.16,84,11.46,84,5.89,78.07,3,75.1,2.52Z"/><path class="cls-2" d="M75.1,2.52S79.34,9.95,69,9.81C64,9.74,32.7-.59,27.59,0s-2,1.24-5.15,1.86S19.85,2,17.68,3.52s-2.29,3.93-6.91,4.15C5.83,7.91,2.09,6.76.38,8.93s2.75,6.15,4.83,6.9c1.49.54.7,4.07,4.42,3.14s18.45-5.3,34.29,4.09C58.72,31.84,71.2,51,70.1,73.75,69,97.19,53.74,101.41,44.21,101.12,21.89,100.44,9.49,79.7,9.49,79.7s5.41,31.79,35,33.37c17.42.93,38.6-11.83,39.52-40.9,1-31.79-11.92-38.55-20.33-51.22,0,0-1.86.9,9,.72C77.29,21.6,84,18.16,84,11.46,84,5.89,78.07,3,75.1,2.52Z"/><path class="cls-1" d="M76.41,37.77s9.21-1.28,17.08,3.31c6.21,3.62,10.86,9.76,9.61,18.06C101.45,70,90.47,73.86,81.88,74.24,64.32,75,45.07,66.83,35.67,59.89c-25.21-18.61-28-40.79-28-40.79s10.39,14.63,25,24.59S67.93,59,80.95,57.22c4.26-.57,7.28-2.47,7.47-5.38C89,42,76.41,37.77,76.41,37.77Z"/><path class="cls-2" d="M76.44,37.76s9.22-1.29,17.1,3.31c6.22,3.63,10.87,9.77,9.62,18.08-1.65,10.9-12.64,14.74-21.24,15.12C64.33,75,45.06,66.85,35.65,59.91c-25.24-18.63-28-40.84-28-40.84s10.41,14.65,25,24.62S67.95,59,81,57.23c4.26-.57,7.29-2.47,7.48-5.39C89.08,42,76.44,37.76,76.44,37.76Z"/><circle class="cls-1" cx="25.51" cy="9.69" r="3.85"/></g></g></svg>