<?xml version="1.0" encoding="UTF-8"?>
<svg width="1442px" height="257px" viewBox="0 0 1442 257" version="1.1" xmlns="http://www.w3.org/2000/svg" xmlns:xlink="http://www.w3.org/1999/xlink">
    <!-- Generator: Sketch 46.2 (44496) - http://www.bohemiancoding.com/sketch -->
    <title>OpenStack_Logo_Horizontal</title>
    <desc>Created with Sketch.</desc>
    <defs></defs>
    <g id="Page-1" stroke="none" stroke-width="1" fill="none" fill-rule="evenodd">
        <g id="OpenStack_Logo_Horizontal" transform="translate(0.000000, -1.000000)">
            <path d="M237.426,1.83 L24.321,1.83 C10.944,1.83 0,12.774 0,26.151 L0,83.457 L59.109,83.457 L59.109,74.094 C59.109,66.828 64.998,60.939 72.264,60.939 L189.483,60.939 C196.746,60.939 202.635,66.828 202.635,74.094 L202.635,83.457 L261.747,83.457 L261.747,26.151 C261.747,12.774 250.803,1.83 237.426,1.83" id="Fill-1" fill="#D81F41"></path>
            <path d="M202.635,185.736 C202.635,193.002 196.746,198.891 189.483,198.891 L72.264,198.891 C65.001,198.891 59.109,193.002 59.109,185.736 L59.109,176.373 L0,176.373 L0,233.682 C0,247.056 10.944,258 24.321,258 L237.426,258 C250.803,258 261.747,247.056 261.747,233.682 L261.747,176.373 L202.635,176.373 L202.635,185.736" id="Fill-2" fill="#D81F41"></path>
            <polygon id="Fill-3" fill="#D81F41" points="0 159.471 59.109 159.471 59.109 100.359 0 100.359"></polygon>
            <polygon id="Fill-4" fill="#D81F41" points="202.635 159.471 261.744 159.471 261.744 100.359 202.635 100.359"></polygon>
            <path d="M1425.234,192.105 C1418.319,192.105 1412.691,186.48 1412.691,179.562 C1412.691,172.647 1418.319,167.022 1425.234,167.022 C1432.149,167.022 1437.777,172.647 1437.777,179.562 C1437.777,186.48 1432.149,192.105 1425.234,192.105 Z M1441.863,179.562 C1441.863,170.394 1434.402,162.936 1425.234,162.936 C1416.066,162.936 1408.605,170.394 1408.605,179.562 C1408.605,188.733 1416.066,196.191 1425.234,196.191 C1434.402,196.191 1441.863,188.733 1441.863,179.562 L1441.863,179.562 Z" id="Fill-5" fill="#443F39"></path>
            <path d="M1428.072,176.643 C1428.072,178.107 1427.142,179.088 1425.417,179.088 L1422.927,179.088 L1422.927,174.174 L1425.348,174.174 C1427.073,174.174 1428.072,174.99 1428.072,176.619 L1428.072,176.643 Z M1431.471,176.55 L1431.471,176.457 C1431.471,174.849 1430.982,173.571 1430.097,172.683 C1429.071,171.66 1427.562,171.126 1425.675,171.126 L1419.555,171.126 L1419.555,187.416 L1422.927,187.416 L1422.927,182.067 L1425.045,182.067 L1428.048,187.416 L1431.912,187.416 L1428.444,181.365 C1430.238,180.576 1431.471,179.016 1431.471,176.55 L1431.471,176.55 Z" id="Fill-6" fill="#443F39"></path>
            <path d="M349.17,130.545 L349.17,129.042 C349.17,104.232 361.95,85.944 381.744,85.944 C401.037,85.944 414.819,104.487 414.819,129.291 L414.819,130.794 C414.819,155.598 402.039,174.141 382.245,174.141 C362.949,174.141 349.17,155.349 349.17,130.545 Z M443.13,131.043 L443.13,128.787 C443.13,89.448 417.324,60.885 382.245,60.885 C346.914,60.885 320.856,89.952 320.856,129.042 L320.856,131.292 C320.856,170.631 346.665,198.945 381.744,198.945 C417.072,198.945 443.13,170.133 443.13,131.043 L443.13,131.043 Z" id="Fill-7" fill="#443F39"></path>
            <path d="M486.963,131.043 L486.963,128.538 C486.963,102.48 501.498,85.944 518.532,85.944 C535.572,85.944 549.354,102.231 549.354,128.787 L549.354,131.043 C549.354,157.605 535.821,173.64 518.532,173.64 C501.498,173.64 486.963,157.101 486.963,131.043 Z M577.92,131.547 L577.92,128.037 C577.92,83.184 552.861,60.885 526.302,60.885 C507.258,60.885 495.732,71.91 487.464,84.69 L487.464,63.39 L459.15,63.39 L459.15,234.027 L487.464,234.027 L487.464,176.145 C495.483,187.92 507.009,198.696 526.302,198.696 C553.11,198.696 577.92,176.145 577.92,131.547 L577.92,131.547 Z" id="Fill-8" fill="#443F39"></path>
            <path d="M649.989,84.69 C666.528,84.69 676.047,99.975 677.553,121.02 L621.426,121.02 C623.43,98.472 634.455,84.69 649.989,84.69 Z M700.605,178.404 L685.821,160.86 C677.052,169.38 667.782,174.894 655.254,174.894 C637.965,174.894 624.183,162.867 621.675,140.565 L704.865,140.565 C705.114,136.557 705.114,132.546 705.114,130.794 C705.114,90.954 686.073,60.885 649.989,60.885 C617.415,60.885 593.361,89.448 593.361,129.291 L593.361,131.292 C593.361,172.887 619.923,198.945 654,198.945 C673.794,198.945 688.578,191.178 700.605,178.404 L700.605,178.404 Z" id="Fill-9" fill="#443F39"></path>
            <path d="M788.256,60.885 C770.214,60.885 759.441,71.16 751.923,82.935 L751.923,63.39 L723.609,63.39 L723.609,196.191 L751.923,196.191 L751.923,115.761 C751.923,97.47 762.198,86.442 776.979,86.442 C792.012,86.442 800.784,96.714 800.784,115.257 L800.784,196.191 L829.098,196.191 L829.098,107.241 C829.098,78.927 813.813,60.885 788.256,60.885" id="Fill-10" fill="#443F39"></path>
            <path d="M943.23,158.355 L943.23,158.103 C943.23,137.307 927.693,127.788 907.146,118.515 C891.612,111.498 881.088,106.992 881.088,98.223 L881.088,97.719 C881.088,90.45 887.352,84.69 897.876,84.69 C908.4,84.69 919.425,89.703 929.448,96.465 L941.475,75.669 C928.947,66.648 913.161,61.389 898.377,61.389 C873.573,61.389 854.529,76.422 854.529,100.224 L854.529,100.728 C854.529,122.523 871.068,131.547 890.862,140.061 C906.645,146.829 916.92,151.086 916.92,160.611 L916.92,160.86 C916.92,169.128 910.155,175.392 898.377,175.392 C886.602,175.392 873.822,169.629 861.798,159.861 L848.517,180.156 C863.802,192.933 882.093,198.696 897.876,198.696 C923.436,198.696 943.23,184.413 943.23,158.355" id="Fill-11" fill="#443F39"></path>
            <path d="M1030.902,192.432 L1030.902,169.128 C1026.141,171.636 1021.128,172.887 1015.617,172.887 C1006.596,172.887 1001.334,168.63 1001.334,158.355 L1001.334,87.696 L1031.151,87.696 L1031.151,63.39 L1001.334,63.39 L1001.334,27.561 L973.02,27.561 L973.02,63.39 L958.488,63.39 L963.138,87.696 L973.02,87.696 L973.02,164.118 C973.02,189.927 987.804,198.195 1007.349,198.195 C1016.868,198.195 1024.386,195.942 1030.902,192.432" id="Fill-12" fill="#443F39"></path>
            <path d="M1125.357,151.59 C1125.357,166.623 1112.829,177.648 1096.542,177.399 C1084.266,177.15 1074.996,169.629 1074.996,156.351 L1074.996,155.847 C1074.996,141.819 1084.515,133.548 1100.802,133.548 C1110.324,133.548 1118.844,135.555 1125.357,138.309 L1125.357,151.59 Z M1139.391,75.42 C1130.871,66.648 1117.593,61.887 1100.304,61.887 C1082.511,61.887 1069.23,66.15 1056.453,72.414 L1064.469,94.962 C1073.241,90.954 1083.765,86.943 1096.542,86.943 C1114.584,86.943 1125.108,96.216 1125.108,114.003 L1125.108,119.52 C1116.087,116.508 1107.069,114.258 1094.538,114.258 C1066.476,114.258 1047.432,128.289 1047.432,156.852 L1047.432,158.103 C1047.432,183.912 1065.975,198.696 1088.025,198.696 C1105.314,198.696 1117.089,191.178 1124.856,179.904 L1124.856,196.191 L1152.669,196.191 L1152.669,113.754 C1152.669,97.218 1148.16,84.186 1139.391,75.42 L1139.391,75.42 Z" id="Fill-13" fill="#443F39"></path>
            <path d="M1273.026,178.902 L1257.741,160.11 C1249.974,167.877 1242.207,173.64 1230.681,173.64 C1211.385,173.64 1197.858,156.351 1197.858,130.545 L1197.858,129.291 C1197.858,104.232 1211.385,86.442 1229.931,86.442 C1241.955,86.442 1249.725,92.457 1256.739,99.723 L1272.525,78.927 C1261.5,67.902 1248.972,60.885 1229.931,60.885 C1195.101,60.885 1169.292,89.448 1169.292,129.042 L1169.292,131.547 C1169.292,171.135 1194.348,198.945 1228.926,198.945 C1249.224,198.945 1262.502,190.68 1273.026,178.902" id="Fill-14" fill="#443F39"></path>
            <polyline id="Fill-15" fill="#443F39" points="1359.687 127.263 1339.812 148.626 1366.47 196.191 1399.293 196.191 1359.687 127.263"></polyline>
            <polyline id="Fill-16" fill="#443F39" points="1364.463 63.39 1319.112 121.773 1319.112 15.282 1290.801 15.282 1290.801 196.191 1319.112 196.191 1319.112 157.854 1398.042 63.39 1364.463 63.39"></polyline>
        </g>
    </g>
</svg>