<?xml version="1.0" encoding="UTF-8"?>
<svg width="1044px" height="744px" viewBox="0 0 1044 744" version="1.1" xmlns="http://www.w3.org/2000/svg" xmlns:xlink="http://www.w3.org/1999/xlink">
    <!-- Generator: Sketch 46.2 (44496) - http://www.bohemiancoding.com/sketch -->
    <title>Untitled</title>
    <desc>Created with Sketch.</desc>
    <defs></defs>
    <g id="Page-1" stroke="none" stroke-width="1" fill="none" fill-rule="evenodd">
        <g id="Tomcat" fill-rule="nonzero">
            <g id="Calque_3" transform="translate(24.000000, 28.000000)">
                <g id="XMLID_1_">
                    <path d="M158.919922,460 C170.759766,474.601562 183.919922,489.398438 198.400391,504.277344 C156.240234,516.960937 128.59961,540.519531 111.359375,561.320312 C84.0800784,594.242188 69.6406252,637.722656 72.9609376,675.039062 L0.3593752,675.039062 C14.919922,643.441406 73.0390624,552.160156 158.919922,460 Z" id="Shape" fill="#D1A41A"></path>
                    <path d="M999.960938,694.839844 L911.679688,694.839844 C709.160156,589.160156 531.359375,514.640625 342.480469,498.359375 C342.88086,472.078125 347.560547,442.320312 356.560547,409.160156 L339.160156,404.480468 C329.919922,438.558594 325.080078,469.398437 324.519531,497 C304.839843,495.679687 285.039062,495.039062 265.039062,495.039062 C248.11914,495.039062 232.679687,496.601562 218.599609,499.320312 C200.240234,481 184.599609,463.480468 171.320312,446.882812 C258.439453,356.160156 401.919921,274.078124 526.800781,243.199218 C561.960937,360.078125 637.441406,440.160156 729.039062,494.039062 C735.757812,490.199218 742.359374,486.199218 748.839843,481.960937 L908.640625,654 L915.640625,653.398438 C959.277344,649.640625 984.078125,673.320313 990.640625,680.679688 C995.480469,686.039062 998.359375,690.960938 999.960938,694.839844 Z" id="Shape" fill="#D1A41A"></path>
                    <path d="M922,119.398438 C925.242188,278.160156 844.242188,404.519531 730.839844,469.320313 C538.359375,373.441406 502.11914,130.480469 534.919922,0.1601564 C544.039062,50 560.640625,81.2421876 596.480469,96.5625 C674.640625,74.1992188 782.199219,72.4375 861.441406,94.28125 C894.441406,70.28125 907.242188,33.6015624 914.242188,1.5625 C922.960938,38.8398436 921.960938,119.398438 922,119.398438 Z" id="Shape" fill="#FFDC76"></path>
                </g>
            </g>
            <g id="Layer_1" transform="translate(272.000000, 100.000000)" fill="#000000">
                <polygon id="Shape" points="189.833984 197.710938 219.203125 284.734375 130.005859 224.90625"></polygon>
                <polygon id="Shape" points="103.900391 235.785156 135.445312 290.171875 69.0917968 256.453125"></polygon>
                <polygon id="Shape" points="32.107422 278.207031 47.3359376 332.597656 1.6503908 301.050781"></polygon>
                <polygon id="Shape" points="518.339844 423.96875 490.058594 467.480469 540.09375 444.636719"></polygon>
                <polygon id="Shape" points="562.9375 474.007812 517.253906 508.816406 580.34375 492.5"></polygon>
                <polygon id="Shape" points="451.984375 1.9140624 485.707031 75.8828124 507.460938 0.8281252"></polygon>
                <polygon id="Shape" points="281.207031 109.601562 334.507812 137.882812 286.644531 141.148438"></polygon>
                <polygon id="Shape" points="294.259766 167.257812 326.892578 180.308594 299.699219 187.921875"></polygon>
                <polygon id="Shape" points="674.980469 130.273438 631.46875 148.765625 667.363281 154.203125"></polygon>
                <polygon id="Shape" points="657.574219 183.570312 623.855469 193.363281 651.046875 203.152344"></polygon>
            </g>
            <g id="Calque_4" transform="translate(532.000000, 156.000000)" fill="#000000">
                <rect id="Rectangle-path" x="3.6933592" y="209.210938" width="104.978516" height="12.9570312"></rect>
                <rect id="Rectangle-path" x="3.6933592" y="178.101562" width="104.978516" height="12.9609376"></rect>
                <rect id="Rectangle-path" x="324.253906" y="209.210938" width="104.976562" height="12.9570312"></rect>
                <rect id="Rectangle-path" x="324.253906" y="178.101562" width="104.976562" height="12.9609376"></rect>
                <g id="Group" transform="translate(100.000000, 0.000000)">
                    <path d="M187.253906,101.265625 L78.5039064,101.265625 L66.4218752,101.265625 L16.1796876,101.265625 L16.1796876,89.6015628 L69.4179688,89.6015628 C75.9726564,61.5312504 77.2695312,34.7031252 69.3632812,21.1015628 C65.9882812,15.3203128 61.3242188,12.6171876 54.6679688,12.6171876 C24.2304688,12.6171876 11.65625,44.8046876 11.1328124,46.1718752 L11.1406248,46.1640628 L0.2187496,42.0664064 C0.8437496,40.3867188 16.0781248,0.9531252 54.6679684,0.9531252 C65.4374996,0.9531252 74.003906,5.8984376 79.4335936,15.2343752 C89.0742188,31.7968752 87.941406,60.4531252 81.410156,89.6015628 L174.828125,89.6015628 C187.238281,53.1406252 213.152344,35.9492192 256.449218,35.9492192 L256.449218,47.6093756 C209.519531,47.6093756 196.375,67.5039068 186.984375,89.6015632 L237.957031,89.6015632 L237.839844,101.207032 L187.253906,101.265625 Z" id="Shape"></path>
                    <path d="M194.921875,158.871094 L194.996094,158.859375 C181.160156,138.457031 176.777344,121.039062 182.5625,101.207031 L170.679688,101.265625 C166.539063,114.46875 168.199219,134.359375 178.394532,151.425781 L59.6953128,151.425781 C66.9179692,136.960938 73.6132816,119.324219 78.5039064,101.265625 L66.4218752,101.265625 C61.03125,120.414062 53.4570316,139.363281 44.933594,154.375 L42.1757816,159.226562 L108.785157,201.15625 L71.2851568,225.867188 L77.707032,235.609375 L119.621094,207.976563 L164.867188,237.503906 L171.082032,227.632813 L129.128906,201.679688 C129.128906,201.679688 191.855469,160.933594 194.972656,158.945312 C194.953125,158.917969 194.941406,158.894531 194.921875,158.871094 Z M119.480469,194.105469 L70.2109376,163.085938 L166.496094,163.109375 L119.480469,194.105469 Z" id="Shape"></path>
                </g>
            </g>
            <g id="Calque_2" fill="#000000">
                <path d="M965.576172,133.332031 C965.501953,113.050781 959.185547,27.3320312 947.576172,3.7304688 C916.09961,15.6914064 858.81836,54.4492188 845.853516,94.0820312 C783.724609,84.8046876 713.685547,85.9023436 652.330078,96.5195312 C642.080078,53.878906 590.632812,21.2460936 551.820312,2.8632812 C535.449219,30.4882812 528.195312,94.5429688 530.041016,139.980469 C529.970703,140.027344 529.894531,140.074219 529.824219,140.125 C537.023438,330.925781 630.623047,449.722656 753.021484,521.722656 C878.947266,449.769531 968.908203,309.496094 965.423828,133.246094 C965.474609,133.277344 965.529297,133.300781 965.576172,133.332031 Z M860.791016,96.5468752 C861.248047,96.6289064 861.705078,96.714844 862.166016,96.8007816 C861.708984,96.7148436 861.251953,96.6289064 860.791016,96.5468752 Z M852.958984,95.1953124 C854.060547,95.3710936 855.173828,95.5703124 856.279297,95.7578124 C855.173828,95.5703124 854.068359,95.3789064 852.958984,95.1953124 Z M945.986328,147.097656 C949.224609,305.859375 868.224609,432.214844 754.826172,497.019532 C562.353515,401.113282 526.095703,158.175782 558.917968,27.8632816 C568.048828,77.683594 584.615234,108.929688 620.492187,124.257813 C698.623046,101.894532 806.185546,100.128906 885.416015,121.980469 C918.435546,97.9726568 931.240234,61.3007816 938.232422,29.2617192 C946.966797,66.5468752 945.958984,147.082031 945.986328,147.097656 Z" id="Shape"></path>
                <path d="M1028.06836,696.363281 C1008.30273,674.25 969.576172,663.785156 937.240234,664.558594 C914.287109,637.238281 781.224609,497.113281 781.224609,497.113281 L772.001952,508.726562 L932.65039,681.679688 L939.623046,681.082031 C983.271484,677.34375 1008.08398,701.015625 1014.65039,708.359375 C1019.4668,713.746094 1022.37305,718.660156 1023.95508,722.515625 L935.654296,722.515625 C733.158203,616.851562 555.341796,542.339844 366.464843,526.066406 C366.878906,499.78125 371.558593,470.027344 380.537109,436.871094 L363.164062,432.164062 C353.933593,466.246094 349.070312,497.109375 348.521484,524.695312 C328.841796,523.390625 309.033203,522.714844 289.050781,522.714844 C272.103515,522.714844 256.669922,524.289062 242.59375,527.023437 C224.234374,508.675781 208.59375,491.1875 195.302734,474.589844 C283.046875,383.191406 427.902343,300.597656 553.435546,270.222656 L549.375,252.636718 C414.207031,285.230468 266.255859,373.976562 183.8125,459.683594 C145.552734,408.042968 130.373046,365.667968 125.865234,333.554687 C120.169922,292.996094 129.851562,255.789062 153.861328,225.957031 C191.449218,179.261718 244.857421,175.972656 299.769531,185.207031 C298.697265,193.878906 299.83789,202.167968 303.310546,207.296874 C317.833984,228.746093 395.884765,236.28125 442.474609,215.496093 C408.09375,167.316406 338.451171,143.792968 319.154296,153.21875 C312.761718,156.339843 307.939453,162.074218 304.634765,168.761718 C285.654296,165.367187 266.802734,162.839843 253.023437,162.941406 C204.59375,163.296875 167.570312,180.21875 139.839844,214.671875 C112.632812,248.472656 101.636718,290.449218 108.039062,336.058594 C114.103516,379.257812 135.492188,425.203125 171.339844,472.851562 C165.384766,479.238281 159.628906,485.546875 154.089844,491.742188 C66.7167968,589.507813 2.8496092,694.34375 2.8496092,711.714844 L2.8496092,720.714844 L118.113281,720.714844 L116.09375,710.042969 C109.583984,675.640625 122.583984,632.640625 149.210938,600.503906 C165.927734,580.328125 193.609375,557.300781 237.082031,546.675781 C275.734375,584.398438 324.980469,624.460938 379.796875,663.113281 L465.451172,663.113281 L465.451172,654.113281 C465.451172,643.957031 460.416015,635.066406 451.271484,629.085938 C437.740234,620.238281 416.851562,619.019531 397.664062,625.5625 C379.371093,605.191406 369.115234,577.976562 366.90039,544.175781 C552.796874,560.636719 730.607421,635.707031 931.240234,740.515625 L1041.63086,740.515625 L1043.07617,733.28125 C1045.13867,722.980469 1039.52539,709.179688 1028.06836,696.363281 Z M135.351562,589.019531 C108.08789,621.925781 93.6367188,665.394531 96.9472656,702.714844 L24.3359376,702.714844 C38.9257812,671.140625 97.0410156,579.867187 182.910156,487.675781 C194.742188,502.300781 207.921875,517.074219 222.398438,531.96875 C180.238281,544.640625 152.597656,568.207031 135.351562,589.019531 Z" id="Shape"></path>
            </g>
        </g>
    </g>
</svg>