<?xml version="1.0" encoding="UTF-8"?>
<svg width="1201px" height="315px" viewBox="0 0 1201 315" version="1.1" xmlns="http://www.w3.org/2000/svg" xmlns:xlink="http://www.w3.org/1999/xlink">
    <!-- Generator: Sketch 46.2 (44496) - http://www.bohemiancoding.com/sketch -->
    <title>zabbix_logo</title>
    <desc>Created with Sketch.</desc>
    <defs></defs>
    <g id="Page-1" stroke="none" stroke-width="1" fill="none" fill-rule="evenodd">
        <g id="zabbix_logo">
            <polygon id="Fill-1" fill="#D40000" points="0.18 315 1200.06 315 1200.06 0.039 0.18 0.039"></polygon>
            <polygon id="Fill-2" fill="#FFFFFF" points="51.411 48.039 225.315 48.039 225.315 70.62 85.359 242.076 228.726 242.076 228.726 267.003 48 267.003 48 244.419 187.956 72.963 51.411 72.963"></polygon>
            <path d="M346.314,77.217 L305.685,186.201 L387.081,186.201 L346.314,77.217 Z M329.403,48.039 L363.351,48.039 L447.714,267.003 L416.577,267.003 L396.435,210.834 L296.637,210.834 L276.468,267.003 L244.887,267.003 L329.403,48.039 Z" id="Fill-3" fill="#FFFFFF"></path>
            <path d="M509.823,162.435 L509.823,242.664 L557.859,242.664 C573.972,242.664 585.915,239.358 593.673,232.761 C601.431,226.164 605.31,216.06 605.31,202.479 C605.31,188.79 601.431,178.689 593.673,172.185 C585.915,165.693 573.972,162.435 557.859,162.435 L509.823,162.435 Z M509.823,72.378 L509.823,138.378 L554.157,138.378 C568.782,138.378 579.681,135.66 586.851,130.233 C594.012,124.806 597.597,116.523 597.597,105.378 C597.597,94.326 594.012,86.064 586.851,80.592 C579.681,75.12 568.782,72.378 554.157,72.378 L509.823,72.378 Z M479.883,48.039 L556.383,48.039 C579.21,48.039 596.814,52.725 609.165,62.112 C621.516,71.499 627.69,84.846 627.69,102.156 C627.69,115.548 624.54,126.201 618.21,134.124 C611.883,142.044 602.589,146.979 590.331,148.947 C605.064,152.076 616.5,158.592 624.657,168.519 C632.814,178.443 636.891,190.83 636.891,205.701 C636.891,225.261 630.165,240.366 616.722,251.019 C603.282,261.669 584.157,267.003 559.347,267.003 L479.883,267.003 L479.883,48.039 Z" id="Fill-4" fill="#FFFFFF"></path>
            <path d="M714.831,162.435 L714.831,242.664 L762.879,242.664 C778.98,242.664 790.923,239.358 798.681,232.761 C806.439,226.164 810.315,216.06 810.315,202.479 C810.315,188.79 806.439,178.689 798.681,172.185 C790.923,165.693 778.98,162.435 762.879,162.435 L714.831,162.435 Z M714.831,72.378 L714.831,138.378 L759.165,138.378 C773.802,138.378 784.698,135.66 791.859,130.233 C799.032,124.806 802.605,116.523 802.605,105.378 C802.605,94.326 799.032,86.064 791.859,80.592 C784.698,75.12 773.802,72.378 759.165,72.378 L714.831,72.378 Z M684.891,48.039 L761.391,48.039 C784.218,48.039 801.819,52.725 814.173,62.112 C826.524,71.499 832.71,84.846 832.71,102.156 C832.71,115.548 829.548,126.201 823.218,134.124 C816.891,142.044 807.597,146.979 795.339,148.947 C810.069,152.076 821.508,158.592 829.665,168.519 C837.819,178.443 841.899,190.83 841.899,205.701 C841.899,225.261 835.173,240.366 821.73,251.019 C808.29,261.681 789.165,267.003 764.355,267.003 L684.891,267.003 L684.891,48.039 Z" id="Fill-5" fill="#FFFFFF"></path>
            <polygon id="Fill-6" fill="#FFFFFF" points="976.629 48.039 1009.569 48.039 1061.613 126.669 1114.161 48.039 1145.988 48.039 1077.456 150.612 1154.496 267.003 1121.556 267.003 1060.911 175.374 999.69 267.003 967.851 267.003 1045.065 151.443"></polygon>
            <polygon id="Fill-7" fill="#FFFFFF" points="889.899 267.003 919.851 267.003 919.851 48.039 889.899 48.039"></polygon>
        </g>
    </g>
</svg>